<svg width="54" height="25" viewBox="0 0 54 25" fill="none" xmlns="http://www.w3.org/2000/svg">
<path d="M8.88574 15.6865C8.88574 16.4541 8.69238 17.0986 8.30566 17.6201C7.91895 18.1357 7.39453 18.5254 6.73242 18.7891C6.07031 19.0469 5.32031 19.1758 4.48242 19.1758C3.96094 19.1758 3.48633 19.1494 3.05859 19.0967C2.63672 19.0498 2.25293 18.9854 1.90723 18.9033C1.56738 18.8213 1.25684 18.7275 0.975586 18.6221V17.7168C1.43262 17.8926 1.95996 18.0479 2.55762 18.1826C3.16113 18.3115 3.81738 18.376 4.52637 18.376C5.19434 18.376 5.78613 18.2793 6.30176 18.0859C6.82324 17.8926 7.2334 17.5996 7.53223 17.207C7.83105 16.8145 7.98047 16.3193 7.98047 15.7217C7.98047 15.1943 7.85449 14.7637 7.60254 14.4297C7.35645 14.0898 6.98438 13.7998 6.48633 13.5596C5.98828 13.3135 5.36133 13.0645 4.60547 12.8125C4.07812 12.6309 3.59766 12.4404 3.16406 12.2412C2.73633 12.0361 2.37012 11.8018 2.06543 11.5381C1.76074 11.2686 1.52637 10.9463 1.3623 10.5713C1.2041 10.1904 1.125 9.74219 1.125 9.22656C1.125 8.51758 1.30371 7.92285 1.66113 7.44238C2.02441 6.95605 2.51367 6.58984 3.12891 6.34375C3.75 6.0918 4.44727 5.96582 5.2207 5.96582C5.83594 5.96582 6.41895 6.02441 6.96973 6.1416C7.52637 6.25293 8.0625 6.42285 8.57812 6.65137L8.26172 7.43359C7.74609 7.21094 7.23047 7.04688 6.71484 6.94141C6.19922 6.83594 5.68945 6.7832 5.18555 6.7832C4.58203 6.7832 4.04297 6.87402 3.56836 7.05566C3.09961 7.23145 2.72754 7.49805 2.45215 7.85547C2.17676 8.21289 2.03906 8.66406 2.03906 9.20898C2.03906 9.77148 2.16504 10.2256 2.41699 10.5713C2.6748 10.917 3.03809 11.2041 3.50684 11.4326C3.98145 11.6611 4.54102 11.8838 5.18555 12.1006C5.94727 12.3584 6.60352 12.6309 7.1543 12.918C7.70508 13.1992 8.12988 13.5566 8.42871 13.9902C8.7334 14.4238 8.88574 14.9893 8.88574 15.6865ZM15.6445 9.26172C16.875 9.26172 17.8271 9.6748 18.501 10.501C19.1807 11.3271 19.5205 12.5459 19.5205 14.1572C19.5205 15.2354 19.3594 16.1494 19.0371 16.8994C18.7148 17.6436 18.2549 18.209 17.6572 18.5957C17.0654 18.9824 16.3535 19.1758 15.5215 19.1758C14.9473 19.1758 14.4463 19.0908 14.0186 18.9209C13.5967 18.7451 13.2451 18.5107 12.9639 18.2178C12.6826 17.9189 12.4658 17.5908 12.3135 17.2334H12.252C12.2695 17.5674 12.2842 17.916 12.2959 18.2793C12.3076 18.6426 12.3135 18.9854 12.3135 19.3076V23.2275H11.417V9.44629H12.1553L12.2607 11.3535H12.3135C12.4717 10.9902 12.6943 10.6475 12.9814 10.3252C13.2686 10.0029 13.6318 9.74512 14.0713 9.55176C14.5107 9.3584 15.0352 9.26172 15.6445 9.26172ZM15.5303 10.0439C14.8096 10.0439 14.209 10.2021 13.7285 10.5186C13.2539 10.8291 12.8994 11.2861 12.665 11.8896C12.4365 12.4873 12.3193 13.2197 12.3135 14.0869V14.2363C12.3135 15.168 12.4277 15.9443 12.6562 16.5654C12.8906 17.1807 13.2393 17.6406 13.7021 17.9453C14.1709 18.25 14.751 18.4023 15.4424 18.4023C16.1221 18.4023 16.6963 18.2354 17.165 17.9014C17.6338 17.5674 17.9912 17.084 18.2373 16.4512C18.4834 15.8184 18.6064 15.0508 18.6064 14.1484C18.6064 12.8066 18.3486 11.7871 17.833 11.0898C17.3232 10.3926 16.5557 10.0439 15.5303 10.0439ZM25.9365 9.2793C26.1885 9.2793 26.4258 9.29395 26.6484 9.32324C26.8711 9.35254 27.0791 9.39355 27.2725 9.44629L27.1318 10.2637C26.9385 10.2109 26.7422 10.1729 26.543 10.1494C26.3438 10.1201 26.1299 10.1055 25.9014 10.1055C25.4502 10.1055 25.0459 10.1904 24.6885 10.3604C24.3369 10.5303 24.0381 10.7734 23.792 11.0898C23.5459 11.4062 23.3584 11.7871 23.2295 12.2324C23.1006 12.6777 23.0361 13.1758 23.0361 13.7266V19H22.1396V9.44629H22.9043L22.9922 11.248H23.0449C23.1914 10.8789 23.3965 10.5479 23.6602 10.2549C23.9297 9.95605 24.2549 9.71875 24.6357 9.54297C25.0166 9.36719 25.4502 9.2793 25.9365 9.2793ZM30.0322 9.44629V19H29.1445V9.44629H30.0322ZM29.6016 5.91309C29.8242 5.91309 29.9883 5.98047 30.0938 6.11523C30.1992 6.24414 30.252 6.41992 30.252 6.64258C30.252 6.86523 30.1992 7.04102 30.0938 7.16992C29.9883 7.29883 29.8242 7.36328 29.6016 7.36328C29.3906 7.36328 29.2324 7.29883 29.127 7.16992C29.0215 7.04102 28.9688 6.86523 28.9688 6.64258C28.9688 6.41992 29.0215 6.24414 29.127 6.11523C29.2324 5.98047 29.3906 5.91309 29.6016 5.91309ZM37.4326 9.26172C38.5049 9.26172 39.3281 9.54297 39.9023 10.1055C40.4766 10.668 40.7637 11.5498 40.7637 12.751V19H39.8848V12.8037C39.8848 11.8545 39.668 11.1572 39.2344 10.7119C38.8008 10.2666 38.1709 10.0439 37.3447 10.0439C36.2959 10.0439 35.4932 10.3516 34.9365 10.9668C34.3857 11.5762 34.1104 12.499 34.1104 13.7354V19H33.2227V9.44629H33.9434L34.0752 11.1865H34.1279C34.2979 10.8291 34.5293 10.5068 34.8223 10.2197C35.1211 9.92676 35.4873 9.69531 35.9209 9.52539C36.3545 9.34961 36.8584 9.26172 37.4326 9.26172ZM46.4414 18.4111C46.7168 18.4111 46.9717 18.3906 47.2061 18.3496C47.4463 18.3086 47.6572 18.2559 47.8389 18.1914V18.9297C47.6514 18.9941 47.4316 19.0498 47.1797 19.0967C46.9277 19.1494 46.6494 19.1758 46.3447 19.1758C45.8057 19.1758 45.3574 19.0762 45 18.877C44.6426 18.6719 44.373 18.3643 44.1914 17.9541C44.0098 17.5381 43.9189 17.0107 43.9189 16.3721V10.1846H42.4951V9.65723L43.9102 9.38477L44.2178 7.13477H44.8066V9.44629H47.7861V10.1846H44.8066V16.3193C44.8066 17.0049 44.9326 17.5264 45.1846 17.8838C45.4424 18.2354 45.8613 18.4111 46.4414 18.4111Z" fill="white"/>
<circle cx="52" cy="6" r="2" fill="#FF8200"/>
</svg>
