<svg width="24" height="9" viewBox="0 0 24 9" fill="none" xmlns="http://www.w3.org/2000/svg">
<path d="M6.54297 0.861328V5.48047C6.54297 5.97852 6.43717 6.42448 6.22559 6.81836C6.01725 7.21224 5.7015 7.52474 5.27832 7.75586C4.85514 7.98372 4.32292 8.09766 3.68164 8.09766C2.76693 8.09766 2.07031 7.8584 1.5918 7.37988C1.11654 6.89811 0.878906 6.25846 0.878906 5.46094V0.861328H2.05078V5.3584C2.05078 5.9541 2.19076 6.39355 2.4707 6.67676C2.75065 6.95996 3.16895 7.10156 3.72559 7.10156C4.1097 7.10156 4.4222 7.03483 4.66309 6.90137C4.90723 6.76465 5.08626 6.56608 5.2002 6.30566C5.31738 6.04199 5.37598 5.72461 5.37598 5.35352V0.861328H6.54297ZM12.793 8L12.0947 6.01758H9.36523L8.66699 8H7.43164L10.0879 0.832031H11.3867L14.0381 8H12.793ZM11.792 5.01172L11.1133 3.05859C11.0872 2.97396 11.0498 2.85514 11.001 2.70215C10.9521 2.5459 10.9033 2.38802 10.8545 2.22852C10.8057 2.06576 10.765 1.92904 10.7324 1.81836C10.6999 1.95182 10.6592 2.10156 10.6104 2.26758C10.5648 2.43034 10.5192 2.58333 10.4736 2.72656C10.4313 2.86979 10.3988 2.98047 10.376 3.05859L9.69238 5.01172H11.792ZM17.4561 8H16.2793V1.85742H14.1895V0.861328H19.541V1.85742H17.4561V8ZM23.5205 8H22.3682V3.40527C22.3682 3.25228 22.3698 3.09928 22.373 2.94629C22.3763 2.79329 22.3796 2.64355 22.3828 2.49707C22.3893 2.35059 22.3975 2.21061 22.4072 2.07715C22.3389 2.15202 22.2542 2.2334 22.1533 2.32129C22.0557 2.40918 21.9515 2.50033 21.8408 2.59473L21.0205 3.24902L20.4443 2.52148L22.5635 0.861328H23.5205V8Z" fill="white"/>
</svg>
