<svg width="20" height="20" viewBox="0 0 20 20" fill="none" xmlns="http://www.w3.org/2000/svg">
<g clip-path="url(#clip0_6106_170027)">
<path fill-rule="evenodd" clip-rule="evenodd" d="M5.96091 1.07733C6.11719 0.921049 6.32915 0.833252 6.55016 0.833252H13.4502C13.6712 0.833252 13.8831 0.921049 14.0394 1.07733L18.9228 5.96066C19.079 6.11694 19.1668 6.3289 19.1668 6.54992V13.4499C19.1668 13.6709 19.079 13.8829 18.9228 14.0392L14.0394 18.9225C13.8831 19.0788 13.6712 19.1666 13.4502 19.1666H6.55016C6.32915 19.1666 6.11719 19.0788 5.96091 18.9225L1.07757 14.0392C0.921293 13.8829 0.833496 13.6709 0.833496 13.4499V6.54992C0.833496 6.3289 0.921293 6.11694 1.07757 5.96066L5.96091 1.07733ZM6.89534 2.49992L2.50016 6.8951V13.1047L6.89534 17.4999H13.105L17.5002 13.1047V6.8951L13.105 2.49992H6.89534Z" fill="white"/>
<path fill-rule="evenodd" clip-rule="evenodd" d="M13.0891 6.91083C13.4145 7.23626 13.4145 7.7639 13.0891 8.08934L8.08909 13.0893C7.76366 13.4148 7.23602 13.4148 6.91058 13.0893C6.58514 12.7639 6.58514 12.2363 6.91058 11.9108L11.9106 6.91083C12.236 6.58539 12.7637 6.58539 13.0891 6.91083Z" fill="white"/>
<path fill-rule="evenodd" clip-rule="evenodd" d="M6.91058 6.91083C7.23602 6.58539 7.76366 6.58539 8.08909 6.91083L13.0891 11.9108C13.4145 12.2363 13.4145 12.7639 13.0891 13.0893C12.7637 13.4148 12.236 13.4148 11.9106 13.0893L6.91058 8.08934C6.58514 7.7639 6.58514 7.23626 6.91058 6.91083Z" fill="white"/>
</g>
<defs>
<clipPath id="clip0_6106_170027">
<rect width="20" height="20" fill="white"/>
</clipPath>
</defs>
</svg>
