<svg width="12" height="10" viewBox="0 0 12 10" fill="none" xmlns="http://www.w3.org/2000/svg">
<g clip-path="url(#clip0_6316_13918)">
<path d="M11.1566 8.80447L11.1599 6.36401C10.1186 7.78674 8.83372 9.02038 7.38449 10.0004H11.9999C11.5485 10.0004 11.1797 9.28083 11.1566 8.80447Z" fill="#F47920"/>
<path d="M11.0705 0H9.20123C8.8237 0 8.34739 0.260909 8.08893 0.593182C8.06631 5.28182 6.64062 8.16818 4.61539 10H6.39877C6.87877 9.64182 7.34169 9.25409 7.788 8.84364C8.30769 8.36273 8.80062 7.84818 9.27046 7.30727C9.72369 6.78864 10.1538 6.24364 10.5642 5.68455C10.7395 5.44591 10.908 5.20318 11.0769 4.95727L11.0705 0Z" fill="#009BDE"/>
<path d="M0 10.0004H2.30538C3.16754 9.18401 3.86215 8.01674 4.15385 6.36401C2.98708 7.65174 1.60431 8.8631 0 10.0004Z" fill="#6EC4E9"/>
<path d="M5.91784 3.56539C5.58553 4.09039 5.22646 4.60402 4.84107 5.10721C4.62276 7.05266 4.00569 8.46539 3.20307 9.49357C3.174 9.53357 3.14123 9.57084 3.11169 9.60721C3.09876 9.62539 3.08584 9.64039 3.07292 9.65857C2.97461 9.77584 2.87353 9.88993 2.76923 9.99993H3.73846C5.4023 8.45448 6.78276 5.92539 6.92307 1.81812C6.61615 2.40175 6.28338 2.98539 5.91784 3.56539Z" fill="#009BDE"/>
</g>
<defs>
<clipPath id="clip0_6316_13918">
<rect width="12" height="10" fill="white"/>
</clipPath>
</defs>
</svg>
